<?xml version="1.0" encoding="UTF-8" standalone="no"?>
<svg
   xmlns:dc="http://purl.org/dc/elements/1.1/"
   xmlns:cc="http://creativecommons.org/ns#"
   xmlns:rdf="http://www.w3.org/1999/02/22-rdf-syntax-ns#"
   xmlns:svg="http://www.w3.org/2000/svg"
   xmlns="http://www.w3.org/2000/svg"
   xmlns:sodipodi="http://sodipodi.sourceforge.net/DTD/sodipodi-0.dtd"
   xmlns:inkscape="http://www.inkscape.org/namespaces/inkscape"
   viewBox="0 0 450.00001 335.00001"
   width="450"
   height="335"
   isolation="isolate"
   version="1.1"
   id="svg904"
   sodipodi:docname="sad.svg"
   inkscape:version="0.92.4 5da689c313, 2019-01-14"
   style="isolation:isolate">
  <metadata
     id="metadata908">
    <rdf:RDF>
      <cc:Work
         rdf:about="">
        <dc:format>image/svg+xml</dc:format>
        <dc:type
           rdf:resource="http://purl.org/dc/dcmitype/StillImage" />
        <dc:title></dc:title>
      </cc:Work>
    </rdf:RDF>
  </metadata>
  <sodipodi:namedview
     pagecolor="#ffffff"
     bordercolor="#666666"
     borderopacity="1"
     objecttolerance="10"
     gridtolerance="10"
     guidetolerance="10"
     inkscape:pageopacity="0"
     inkscape:pageshadow="2"
     inkscape:window-width="1366"
     inkscape:window-height="768"
     id="namedview906"
     showgrid="false"
     inkscape:zoom="0.57250951"
     inkscape:cx="-190.2331"
     inkscape:cy="49.033003"
     inkscape:window-x="0"
     inkscape:window-y="0"
     inkscape:window-maximized="1"
     inkscape:current-layer="svg904" />
  <defs
     id="defs898">
    <clipPath
       id="clipPath896">
      <rect
         width="166.7"
         height="168.89999"
         id="rect894"
         x="0"
         y="0" />
    </clipPath>
  </defs>
  <circle
     style="opacity:1;fill:#ececec;fill-opacity:1;stroke:none;stroke-width:2.01446509;stroke-miterlimit:4;stroke-dasharray:none;stroke-opacity:1"
     id="path1533"
     cx="225"
     cy="167.5"
     r="162.5" />
  <g
     clip-path="url(#_clipPath_PPPiEcORhRSYwopEENnaRFzzeYSXmwtt)"
     id="g902"
     style="fill:#202040;fill-opacity:1"
     transform="matrix(0.98980204,0,0,0.97690941,142.5,90.000001)">
    <path
       d="m 65.6,135.2 c 0,1.9 -1.5,3.4 -3.4,3.4 -1.8,0 -3.3,-1.5 -3.3,-3.4 0,-4.5 3,-8.5 7.9,-11.2 4.3,-2.4 10.2,-3.9 16.5,-3.9 6.4,0 12.3,1.5 16.6,3.9 4.8,2.7 7.9,6.7 7.9,11.2 0,1.9 -1.5,3.4 -3.4,3.4 -1.8,0 -3.3,-1.5 -3.3,-3.4 0,-1.9 -1.7,-3.9 -4.5,-5.4 -3.3,-1.9 -8,-3 -13.3,-3 -5.2,0 -9.9,1.1 -13.3,3 -2.7,1.5 -4.4,3.5 -4.4,5.4 z m 83.6,18.1 c 0,4.3 -1.7,8.2 -4.6,11.1 -2.8,2.8 -6.7,4.5 -11,4.5 -4.3,0 -8.2,-1.7 -11,-4.5 -1.7,-1.6 -2.9,-3.5 -3.7,-5.7 -4.8,2.3 -9.9,4.1 -15.2,5.4 -6.5,1.7 -13.3,2.5 -20.4,2.5 -23,0 -43.8,-9.3 -58.9,-24.4 C 9.3,127.1 0,106.3 0,83.3 0,60.3 9.3,39.5 24.4,24.4 39.5,9.3 60.3,0 83.3,0 c 23.1,0 43.9,9.3 59,24.4 15,15.1 24.4,35.9 24.4,58.9 0,11.2 -2.2,21.8 -6.2,31.6 -3.9,9.3 -9.4,17.8 -16.1,25.1 2.6,5.1 4.8,10.2 4.8,13.3 z m -18.5,-27 c 0.4,-0.8 1.1,-1.3 1.8,-1.5 l 0.1,-0.1 v 0 h 0.1 v 0 h 0.1 l 0.1,-0.1 v 0 0 h 0.1 v 0 c 0,0 0.1,0 0.1,0 v 0 h 0.1 v 0 c 0.7,-0.1 1.4,0 2,0.4 0.6,0.3 1.1,0.8 1.4,1.4 v 0 0 0 0 0 0.1 0 0 0 0 h 0.1 c 0.3,0.7 1,1.8 1.7,3.1 v 0 l 0.1,0.1 v 0 l 0.1,0.1 v 0.1 0 l 0.1,0.1 v 0.1 0 0 l 0.1,0.1 v 0 0.1 h 0.1 v 0.1 0 0 l 0.1,0.1 v 0 0.1 l 0.1,0.1 v 0 0 l 0.1,0.1 v 0 0.1 c 0.6,0.9 1.2,2 1.8,3 5.5,-6.3 10.1,-13.6 13.3,-21.5 3.7,-9 5.7,-18.8 5.7,-29.1 C 160,62.1 151.4,43 137.6,29.1 123.7,15.2 104.5,6.7 83.3,6.7 62.2,6.7 43,15.2 29.1,29.1 15.2,43 6.7,62.1 6.7,83.3 c 0,21.2 8.5,40.3 22.4,54.2 13.9,13.9 33.1,22.5 54.2,22.5 6.5,0 12.8,-0.8 18.8,-2.3 5.7,-1.5 11,-3.5 16,-6 v -0.1 h 0.1 v -0.3 0 l 0.1,-0.3 v 0 l 0.1,-0.3 v -0.1 l 0.1,-0.2 v -0.1 -0.3 l 0.1,-0.1 v -0.2 l 0.1,-0.1 0.1,-0.3 c 0.1,-0.4 0.2,-0.8 0.3,-1.1 l 0.1,-0.1 0.1,-0.3 v -0.1 l 0.1,-0.3 v 0 c 0.1,-0.3 0.2,-0.5 0.3,-0.7 v -0.1 l 0.1,-0.3 0.1,-0.1 0.1,-0.3 h 0.1 c 0.1,-0.3 0.2,-0.6 0.3,-0.8 v 0 l 0.2,-0.4 v -0.1 l 0.1,-0.3 0.1,-0.1 0.1,-0.3 v -0.1 h 0.1 l 0.1,-0.3 v -0.1 l 0.1,-0.2 0.1,-0.2 h 0.1 c 0.2,-0.4 0.3,-0.8 0.6,-1.2 v -0.1 l 0.2,-0.3 v -0.1 l 0.2,-0.4 v 0 l 0.2,-0.4 v 0 l 0.2,-0.4 0.2,-0.3 v -0.1 0 l 0.4,-0.8 h 0.1 l 0.1,-0.3 0.1,-0.2 0.1,-0.1 0.1,-0.3 0.1,-0.1 0.2,-0.3 v -0.1 l 0.2,-0.3 v 0 l 0.2,-0.4 v 0 l 0.2,-0.4 v 0 l 0.2,-0.3 0.1,-0.1 0.1,-0.3 0.1,-0.1 0.1,-0.3 0.1,-0.1 0.1,-0.2 0.1,-0.2 0.1,-0.2 0.1,-0.2 0.3,-0.4 v -0.1 l 0.2,-0.3 v 0 l 0.2,-0.3 v -0.1 l 0.2,-0.3 v 0 l 0.2,-0.4 v 0 l 0.3,-0.3 0.1,-0.3 v -0.1 l 0.2,-0.2 0.1,-0.1 0.1,-0.2 0.1,-0.2 0.1,-0.1 0.1,-0.2 v -0.2 l 0.2,-0.2 v 0 l 0.2,-0.3 v 0 l 0.2,-0.3 v 0 l 0.1,-0.3 v 0 l 0.1,-0.1 v -0.1 h 0.1 v -0.1 -0.1 0 l 0.1,-0.1 v 0 l 0.1,-0.1 v 0 -0.1 0 h 0.1 v 0 -0.1 0 0 0 l 0.1,-0.1 v 0 -0.1 0 -0.1 h 0.1 v 0 0 0 -0.1 0 l 0.1,-0.1 v 0 0 0 -0.1 0 h 0.1 v 0 -0.1 0 l 0.1,-0.1 v 0 0 0 -0.1 0 0 0 l 0.1,-0.1 v 0 0 0 -0.1 0 h 0.1 v 0 -0.1 0 -0.1 0 h 0.1 v 0 0 0 -0.1 0 0 0 l 0.1,-0.1 v 0 0 0 -0.1 0 0 0 l 0.1,-0.1 v 0 0 0 0 0 l 0.1,-0.1 v 0 0 0 -0.1 0 0 0 0 0 l 0.1,-0.1 v 0 0 0 0 0 -0.1 0 0 0 l 0.1,-0.1 v 0 0 0 0 0 -0.1 0 h 0.1 v 0 0 0 z m 9.3,33.3 c 1.5,-1.5 2.6,-3.8 2.6,-6.3 0,-2.3 -2.5,-7.3 -5.2,-12.2 v 0 0 0 c -0.4,-0.7 -0.7,-1.3 -1.1,-2 l -0.1,-0.1 v -0.1 h -0.1 v -0.1 l -0.1,-0.3 h -0.1 c -0.7,-1.3 -1.4,-2.4 -2,-3.5 l -0.1,-0.1 v -0.1 0 l -0.1,-0.1 -0.1,-0.1 v -0.1 l -0.2,0.3 -0.1,0.3 v 0 l -0.2,0.3 v 0 l -0.2,0.3 -0.2,0.3 v 0 l -0.2,0.3 v 0 l -0.1,0.3 -0.2,0.3 v 0 l -0.2,0.3 -0.2,0.3 v 0 l -0.2,0.4 v 0 l -0.2,0.3 v 0 l -0.2,0.3 -0.2,0.4 v 0 l -0.2,0.3 v 0 l -0.1,0.3 v 0 l -0.2,0.4 v 0 l -0.2,0.3 -0.2,0.3 v 0 l -0.2,0.4 v 0 l -0.2,0.3 v 0 l -0.1,0.3 -0.2,0.4 -0.2,0.3 v 0 l -0.2,0.4 v 0 l -0.2,0.3 -0.2,0.3 v 0 l -0.1,0.4 -0.2,0.3 v 0 l -0.2,0.4 v 0 l -0.2,0.3 v 0 l -0.1,0.3 -0.2,0.3 -0.2,0.4 -0.1,0.3 v 0 l -0.2,0.3 -0.1,0.3 v 0 l -0.2,0.3 v 0 l -0.1,0.4 v 0 l -0.2,0.3 v 0 l -0.1,0.3 v 0 l -0.1,0.3 -0.2,0.3 -0.1,0.2 v 0 l -0.1,0.4 v 0 l -0.2,0.3 v 0.2 0 l -0.1,0.3 v 0 l -0.2,0.2 v 0 l -0.1,0.3 v 0 0.3 0 l -0.1,0.2 v 0 l -0.1,0.3 v 0 l -0.1,0.2 v 0 0.3 0 l -0.1,0.2 v 0 l -0.1,0.2 v 0 0.2 0 0.2 0 c -0.1,0.1 -0.1,0.1 -0.1,0.2 v 0 0.2 0 c 0,0.1 0,0.1 0,0.2 v 0 l -0.1,0.2 v 0 0.1 0.1 c 0.1,2.5 1.1,4.7 2.7,6.3 1.6,1.6 3.8,2.6 6.3,2.6 2.5,0 4.7,-1 6.4,-2.7 z m -4.7,-86.9 c 0.9,1.6 0.3,3.6 -1.4,4.5 -1.6,0.8 -3.6,0.2 -4.5,-1.4 -0.7,-1.5 -1.8,-2.9 -3.1,-3.9 -1.3,-1.1 -2.9,-1.8 -4.5,-2.3 v 0 c -1,-0.2 -2,-0.4 -2.9,-0.4 -1.1,0 -2.1,0.1 -3.1,0.3 -1.8,0.4 -3.5,-0.7 -4,-2.5 -0.3,-1.8 0.8,-3.5 2.6,-4 1.4,-0.3 3,-0.4 4.5,-0.4 1.6,0 3.1,0.2 4.5,0.6 h 0.2 c 2.5,0.7 4.8,1.9 6.8,3.5 2.1,1.6 3.7,3.7 4.9,6 z m -98.1,3.1 c -0.8,1.6 -2.8,2.2 -4.5,1.4 -1.6,-0.9 -2.2,-2.9 -1.4,-4.5 1.2,-2.3 2.9,-4.4 4.9,-6 2,-1.6 4.4,-2.8 6.9,-3.5 h 0.1 c 1.5,-0.4 3,-0.6 4.5,-0.6 1.6,0 3.1,0.1 4.6,0.4 1.8,0.5 2.9,2.2 2.5,4 -0.4,1.8 -2.2,2.9 -3.9,2.5 -1,-0.2 -2.1,-0.3 -3.1,-0.3 -1,0 -2,0.2 -2.9,0.4 v 0 c -1.7,0.5 -3.2,1.2 -4.5,2.3 -1.3,1 -2.4,2.4 -3.2,3.9 z m 88,16.9 c 0,-2 -0.7,-3.8 -1.9,-5.1 -1.1,-1.1 -2.7,-1.9 -4.3,-1.9 -1.7,0 -3.2,0.8 -4.3,1.9 -1.2,1.3 -1.9,3.1 -1.9,5.1 0,1.9 0.7,3.7 1.9,5 1.1,1.2 2.6,1.9 4.3,1.9 1.6,0 3.2,-0.7 4.3,-1.9 1.2,-1.3 1.9,-3.1 1.9,-5 z m 3,-9.5 c 2.2,2.4 3.6,5.8 3.6,9.5 0,3.7 -1.4,7 -3.6,9.5 -2.4,2.5 -5.6,4.1 -9.2,4.1 -3.6,0 -6.9,-1.6 -9.2,-4.1 -2.3,-2.5 -3.7,-5.8 -3.7,-9.5 0,-3.7 1.4,-7.1 3.7,-9.5 2.3,-2.6 5.6,-4.1 9.2,-4.1 3.6,0 6.8,1.5 9.2,4.1 z m -74.3,9.5 c 0,-2 -0.7,-3.8 -1.9,-5.1 -1.1,-1.1 -2.6,-1.9 -4.3,-1.9 -1.7,0 -3.2,0.8 -4.3,1.9 -1.2,1.3 -1.9,3.1 -1.9,5.1 0,1.9 0.7,3.7 1.9,5 1.1,1.2 2.6,1.9 4.3,1.9 1.7,0 3.2,-0.7 4.3,-1.9 1.2,-1.3 1.9,-3.1 1.9,-5 z m 3,-9.5 c 2.3,2.4 3.6,5.8 3.6,9.5 0,3.7 -1.3,7 -3.6,9.5 -2.4,2.5 -5.6,4.1 -9.2,4.1 -3.6,0 -6.8,-1.6 -9.2,-4.1 -2.3,-2.5 -3.7,-5.8 -3.7,-9.5 0,-3.7 1.4,-7.1 3.7,-9.5 2.4,-2.6 5.6,-4.1 9.2,-4.1 3.6,0 6.8,1.5 9.2,4.1 z"
       id="path900"
       style="fill:#202040;fill-opacity:1"
       inkscape:connector-curvature="0" />
  </g>
  <text
     xml:space="preserve"
     style="font-style:normal;font-weight:normal;font-size:40px;line-height:1.25;font-family:sans-serif;letter-spacing:0px;word-spacing:0px;fill:#202040;fill-opacity:1;stroke:none"
     x="-5.7421885"
     y="255"
     id="text1537"><tspan
       sodipodi:role="line"
       id="tspan1535"
       x="-5.7421885"
       y="255"
       style="font-style:normal;font-variant:normal;font-weight:normal;font-stretch:normal;font-size:220px;font-family:'DejaVu Sans';-inkscape-font-specification:'DejaVu Sans';fill:#202040;fill-opacity:1">4</tspan></text>
  <text
     xml:space="preserve"
     style="font-style:normal;font-weight:normal;font-size:40px;line-height:1.25;font-family:sans-serif;letter-spacing:0px;word-spacing:0px;isolation:isolate;fill:#202040;fill-opacity:1;stroke:none"
     x="321.97446"
     y="255"
     id="text1537-6"><tspan
       sodipodi:role="line"
       id="tspan1535-9"
       x="321.97446"
       y="255"
       style="font-style:normal;font-variant:normal;font-weight:normal;font-stretch:normal;font-size:220px;font-family:'DejaVu Sans';-inkscape-font-specification:'DejaVu Sans';fill:#202040;fill-opacity:1">4</tspan></text>
</svg>
